<svg width="16" height="14" viewBox="0 0 16 14" fill="none" xmlns="http://www.w3.org/2000/svg">
<path d="M12 0.199951H4C1.6 0.199951 0 1.39995 0 4.19995V9.79995C0 12.6 1.6 13.8 4 13.8H12C14.4 13.8 16 12.6 16 9.79995V4.19995C16 1.39995 14.4 0.199951 12 0.199951ZM12.376 5.07195L9.872 7.07195C9.344 7.49595 8.672 7.70395 8 7.70395C7.328 7.70395 6.648 7.49595 6.128 7.07195L3.624 5.07195C3.368 4.86395 3.328 4.47995 3.528 4.22395C3.736 3.96795 4.112 3.91995 4.368 4.12795L6.872 6.12795C7.48 6.61595 8.512 6.61595 9.12 6.12795L11.624 4.12795C11.88 3.91995 12.264 3.95995 12.464 4.22395C12.672 4.47995 12.632 4.86395 12.376 5.07195Z" fill="#A9AAAC"/>
</svg>
