<svg width="22" height="24" viewBox="0 0 22 24" fill="none" xmlns="http://www.w3.org/2000/svg">
<path d="M19.5454 5.81196L16.066 2.33263C15.0007 1.26729 13.5614 0.666626 12.0541 0.666626H6.46672C3.06672 0.666626 0.800049 2.93329 0.800049 6.33329V17.6666C0.800049 21.0666 3.06672 23.3333 6.46672 23.3333H15.5334C18.9334 23.3333 21.2001 21.0666 21.2001 17.6666V9.81262C21.2001 8.30529 20.5994 6.86596 19.5454 5.81196ZM10.4334 18.8666C10.4334 19.1428 10.2095 19.3666 9.93338 19.3666H8.73338C6.86338 19.3666 5.33338 17.8366 5.33338 15.9666V15.3333C5.33338 15.0571 5.55724 14.8333 5.83338 14.8333H10.1501C10.3087 14.8333 10.4334 14.958 10.4334 15.1166V18.8666ZM10.4334 13.4166C10.4334 13.5753 10.3087 13.7 10.1501 13.7H5.83338C5.55724 13.7 5.33338 13.4761 5.33338 13.2V12.5666C5.33338 10.6966 6.86338 9.16663 8.73338 9.16663H9.93338C10.2095 9.16663 10.4334 9.39048 10.4334 9.66663V13.4166ZM16.6667 15.9666C16.6667 17.8366 15.1367 19.3666 13.2667 19.3666H12.0667C11.7906 19.3666 11.5667 19.1428 11.5667 18.8666V15.1166C11.5667 14.958 11.6914 14.8333 11.85 14.8333H16.1667C16.4429 14.8333 16.6667 15.0571 16.6667 15.3333V15.9666ZM16.6667 13.2C16.6667 13.4761 16.4429 13.7 16.1667 13.7H11.85C11.6914 13.7 11.5667 13.5753 11.5667 13.4166V9.66663C11.5667 9.39048 11.7906 9.16663 12.0667 9.16663H13.2667C15.1367 9.16663 16.6667 10.6966 16.6667 12.5666V13.2Z" fill="white"/>
</svg>
