<svg width="12" height="16" viewBox="0 0 12 16" fill="none" xmlns="http://www.w3.org/2000/svg">
<path d="M6 0C3.904 0 2.2 1.704 2.2 3.8C2.2 5.856 3.808 7.52 5.904 7.592C5.968 7.584 6.032 7.584 6.08 7.592C6.096 7.592 6.104 7.592 6.12 7.592C6.128 7.592 6.128 7.592 6.136 7.592C8.184 7.52 9.792 5.856 9.8 3.8C9.8 1.704 8.096 0 6 0Z" fill="#A9AAAC"/>
<path d="M10.064 9.72C7.832 8.232 4.192 8.232 1.944 9.72C0.928 10.4 0.368 11.32 0.368 12.304C0.368 13.288 0.928 14.2 1.936 14.872C3.056 15.624 4.528 16 6 16C7.472 16 8.944 15.624 10.064 14.872C11.072 14.192 11.632 13.28 11.632 12.288C11.624 11.304 11.072 10.392 10.064 9.72Z" fill="#A9AAAC"/>
</svg>
